<?xml version="1.0" standalone="no"?>
<!DOCTYPE svg PUBLIC "-//W3C//DTD SVG 20010904//EN"
 "http://www.w3.org/TR/2001/REC-SVG-20010904/DTD/svg10.dtd">
<svg version="1.0" xmlns="http://www.w3.org/2000/svg"
 width="219.000000pt" height="205.000000pt" viewBox="0 0 219.000000 205.000000"
 preserveAspectRatio="xMidYMid meet">

<g transform="translate(0.000000,205.000000) scale(0.100000,-0.100000)"
fill="#000000" stroke="none">
<path d="M979 1905 c-100 -19 -190 -52 -286 -106 -108 -61 -271 -224 -332
-332 -212 -377 -138 -828 184 -1117 192 -171 413 -241 692 -219 207 16 369 95
533 259 166 166 242 324 260 540 9 116 4 137 -38 146 -58 12 -85 29 -124 75
-23 27 -47 49 -53 49 -7 0 -32 -9 -56 -20 -56 -25 -100 -25 -149 0 -52 26 -79
68 -90 136 -5 32 -13 61 -17 64 -5 4 -34 12 -66 18 -73 14 -109 40 -136 95
-26 54 -26 90 -1 146 11 24 20 48 20 54 0 6 -24 33 -54 61 -34 32 -57 62 -61
81 -14 69 -26 80 -90 82 -33 1 -94 -5 -136 -12z m150 -116 c7 -22 29 -57 50
-77 30 -29 36 -41 30 -57 -12 -31 -10 -133 3 -176 22 -74 106 -147 190 -164
20 -4 29 -13 33 -33 29 -141 178 -235 315 -199 44 12 46 11 79 -22 19 -18 54
-42 78 -53 39 -17 43 -22 43 -53 0 -19 -5 -57 -11 -86 -11 -51 -11 -51 -45
-46 -40 7 -99 -8 -137 -35 -74 -53 -89 -182 -30 -256 l32 -39 -62 -61 c-256
-250 -668 -294 -979 -106 -84 51 -198 162 -255 247 -131 197 -166 431 -102
675 l12 42 47 -6 c61 -8 108 8 152 50 63 62 73 156 23 230 l-24 35 47 42 c117
102 318 186 453 188 45 1 46 0 58 -40z"/>
<path d="M855 1476 c-63 -28 -105 -94 -105 -166 0 -103 81 -179 190 -180 112
0 189 103 166 225 -8 43 -59 103 -103 121 -41 18 -109 17 -148 0z"/>
<path d="M1220 1014 c-118 -51 -173 -165 -139 -289 17 -62 102 -140 168 -154
70 -15 82 -14 145 10 61 22 98 60 129 128 36 81 2 212 -68 266 -70 53 -166 69
-235 39z"/>
<path d="M734 821 c-82 -37 -124 -136 -94 -225 28 -85 156 -145 236 -111 102
43 142 148 95 250 -22 48 -44 69 -94 90 -48 20 -93 19 -143 -4z"/>
</g>
</svg>
